<svg xmlns:dc="http://purl.org/dc/elements/1.1/" xmlns:cc="http://creativecommons.org/ns#" xmlns:rdf="http://www.w3.org/1999/02/22-rdf-syntax-ns#" xmlns:svg="http://www.w3.org/2000/svg" xmlns="http://www.w3.org/2000/svg" xmlns:sodipodi="http://sodipodi.sourceforge.net/DTD/sodipodi-0.dtd" xmlns:inkscape="http://www.inkscape.org/namespaces/inkscape" version="1.1" x="0px" y="0px" viewBox="0 0 100 125"><g transform="translate(0,-952.36218)"><path style="font-size:medium;font-style:normal;font-variant:normal;font-weight:normal;font-stretch:normal;text-indent:0;text-align:start;text-decoration:none;line-height:normal;letter-spacing:normal;word-spacing:normal;text-transform:none;direction:ltr;block-progression:tb;writing-mode:lr-tb;text-anchor:start;baseline-shift:baseline;opacity:1;color:#000000;fill:#000000;fill-opacity:1;stroke:none;stroke-width:2;marker:none;visibility:visible;display:inline;overflow:visible;enable-background:accumulate;font-family:Sans;-inkscape-font-specification:Sans" d="M 90 11 C 76.46644 11 59.840878 16.72162 46.28125 30.28125 L 43.28125 33.28125 A 1.0001 1.0001 0 0 0 43.03125 33.78125 L 40.65625 44.0625 L 38.90625 40.5625 A 1.0001 1.0001 0 0 0 37.1875 40.4375 C 32.431227 47.3089 29.395491 54.54885 27.96875 61.46875 A 1.0001 1.0001 0 1 0 29.90625 61.84375 C 31.17597 55.68545 33.857048 49.24842 37.90625 43.03125 L 40.09375 47.4375 A 1.0001 1.0001 0 0 0 41.96875 47.21875 L 44.90625 34.53125 L 47.71875 31.71875 C 60.5491 18.8884 76.15484 13.34988 88.9375 13.0625 C 88.830238 20.79003 87.529895 28.89018 83.3125 37.09375 L 71.84375 39 A 1.0001 1.0001 0 0 0 71.8125 40.96875 L 80.28125 42.65625 C 77.593883 46.73834 74.235936 50.57655 70.40625 54.40625 C 61.864495 62.94805 51.824858 68.70855 42.40625 71.34375 A 1.0087508 1.0087508 0 1 0 42.96875 73.28125 C 52.758592 70.54215 63.066121 64.62145 71.84375 55.84375 C 76.102494 51.58495 79.926981 47.29321 82.84375 42.53125 A 1.0001 1.0001 0 0 0 82.1875 41.03125 L 77.53125 40.09375 L 84.15625 39 A 1.0001 1.0001 0 0 0 84.875 38.46875 C 89.650577 29.39802 91 20.38956 91 12 A 1.0001 1.0001 0 0 0 90 11 z M 73.8125 27 A 1.0001 1.0001 0 0 0 73.3125 27.25 L 73.25 27.3125 L 9.3125 87.25 A 1.0001 1.0001 0 0 0 10 89 L 18.875 89 A 1.0001 1.0001 0 0 0 19.625 88.65625 L 74.6875 28.71875 L 74.75 28.65625 A 1.0001 1.0001 0 0 0 73.8125 27 z M 55.09375 47.09375 L 18.4375 87 L 12.53125 87 L 55.09375 47.09375 z " transform="translate(0,952.36218)"/></g><text x="0" y="115" fill="#000000" font-size="5px" font-weight="bold" font-family="'Helvetica Neue', Helvetica, Arial-Unicode, Arial, Sans-serif">Created by cindy clegane</text><text x="0" y="120" fill="#000000" font-size="5px" font-weight="bold" font-family="'Helvetica Neue', Helvetica, Arial-Unicode, Arial, Sans-serif">from the Noun Project</text></svg>