<svg xmlns="http://www.w3.org/2000/svg" xmlns:xlink="http://www.w3.org/1999/xlink" version="1.1" x="0px" y="0px" viewBox="36.2 21.8 419 547.5" enable-background="new 36.2 21.8 419 438" xml:space="preserve"><path d="M46.3,448.8c-3.7-5.1,7.3-19.5,14.8-25l174.7-127.1c7.4-5.5,16.5-5.8,20.2-0.7c3.7,5.1,0.8,13.7-6.7,19.1L74.7,442.3  C67.3,447.8,50.1,453.9,46.3,448.8z"/><path fill="none" stroke="#000000" stroke-width="25" stroke-miterlimit="10" d="M129.3,385.2C95,204.4,344,215.8,421.3,45.3  c3.7-9.3,17.3,97.6,8.2,136.5c-1.5,6.3-62.6,44.9-64.4,51c-1.5,5.2,51.3,1.1,49.6,6.2c-41.3,119.2-182.8,218.5-290.3,151.9"/><path d="M238.5,309.9c-2-1.8-3.4-4.4-3.7-7.3l2.8-94.7c-0.7-6.3,3.9-11.9,10.2-12.5c6.3-0.7,12,3.9,12.6,10.2l-2.8,94.7  c0.6,6.3-3.9,11.9-10.2,12.6C244,313.1,240.8,312,238.5,309.9L238.5,309.9z"/><path d="M182.7,351.8c-2-1.8-3.4-4.4-3.7-7.3l2.8-94.7c-0.7-6.3,3.9-11.9,10.2-12.5c6.3-0.7,12,3.9,12.6,10.2l-2.8,94.7  c0.6,6.3-3.9,11.9-10.2,12.6C188.2,355.1,185,353.9,182.7,351.8L182.7,351.8z"/><text x="36.2" y="474.8" fill="#000000" font-size="5px" font-weight="bold" font-family="'Helvetica Neue', Helvetica, Arial-Unicode, Arial, Sans-serif">Created by Jacob Kristensen</text><text x="36.2" y="479.8" fill="#000000" font-size="5px" font-weight="bold" font-family="'Helvetica Neue', Helvetica, Arial-Unicode, Arial, Sans-serif">from the Noun Project</text></svg>